<?xml version="1.0" encoding="utf-8"?>
<svg version="1.1" id="saucy" xmlns="http://www.w3.org/2000/svg" xmlns:xlink="http://www.w3.org/1999/xlink" x="0px" y="0px" width="400px" height="300px" viewBox="0 0 400 300" enable-background="new 0 0 400 300" xml:space="preserve">
	<g id="dragon">
		<path id="antler-bg" fill="#0f5957" d="M84.157,100.121c0.884-0.511,1.949-0.416,2.724,0.149c0.273,0.199,0.511,0.454,0.691,0.766l3.75,6.495
		c1.375,2.382,4.449,3.205,6.83,1.83s3.205-4.449,1.83-6.83l-1.82-3.152l-3.18-5.508l-1.25-2.165
		c-0.69-1.196-0.281-2.725,0.915-3.415s2.725-0.281,3.415,0.915l8.75,15.155l8.75,15.155c0.69,1.196,0.281,2.725-0.915,3.415
		s-2.725,0.281-3.415-0.915l-4.43-7.673l-2.5-4.33c-0.847,1.481-2.074,2.768-3.65,3.678c-1.576,0.91-3.304,1.329-5.01,1.322
		c-3.449-0.013-6.81-1.796-8.65-4.983l-3.75-6.495C82.551,102.341,82.961,100.812,84.157,100.121z"/>
		<path id="wing-bg" fill="#5C2C94" d="M194.261,150.679c3.34,0.946,9.918-3.829,14.617-10.61l0.893-1.289c4.699-6.781,5.664-18.434,2.145-25.896
			l-1.187-2.517c-3.519-7.462-10.662-18.8-15.873-25.196l-3.741-4.592c-5.211-6.396-8.924-4.902-8.251,3.321l4.1,50.11
			C187.637,142.232,190.92,149.733,194.261,150.679z"/>
		<g id="downlimbs">
			<path fill="#137575" d="M255.858,154.858c-1.945,1.945-1.945,5.127,0,7.071l21.213,21.213c1.945,1.945,5.126,1.945,7.071,0l0,0
			c1.945-1.945,1.945-5.127,0-7.071l-21.213-21.213C260.985,152.914,257.803,152.914,255.858,154.858L255.858,154.858z"/>
			<path fill="#1AA3AA" d="M245.858,164.858c-1.945,1.945-1.945,5.127,0,7.071l21.213,21.213c1.945,1.945,5.126,1.945,7.071,0l0,0
			c1.945-1.945,1.945-5.127,0-7.071l-21.213-21.213C250.985,162.914,247.803,162.914,245.858,164.858L245.858,164.858z"/>
		</g>
		<g id="uplimbs">
			<path fill="#137575" d="M164.142,164.858c1.945,1.945,1.945,5.127,0,7.071l-21.213,21.213c-1.945,1.945-5.127,1.945-7.071,0l0,0
				c-1.945-1.945-1.945-5.127,0-7.071l21.213-21.213C159.016,162.913,162.198,162.913,164.142,164.858L164.142,164.858z"/>
			<path fill="#1AA3AA" d="M174.142,174.858c1.945,1.945,1.945,5.127,0,7.071l-21.213,21.213c-1.945,1.945-5.127,1.945-7.071,0l0,0
				c-1.945-1.945-1.945-5.127,0-7.071l21.213-21.213C169.016,172.913,172.198,172.913,174.142,174.858L174.142,174.858z"/>
		</g>
		<path id="tail" fill="#1AA3AA" d="M248.787,115.213c5.834-5.166,17.346-9.779,25.582-10.25l12.475-0.713
			c8.237-0.471,10.203-3.379,4.369-6.463s-15.97-1.508-22.524,3.502l-18.591,14.209C243.543,120.508,242.953,120.38,248.787,115.213z
			"/>
		<path id="body" fill="none" stroke="#1AA3AA" stroke-width="60" stroke-linecap="round" stroke-miterlimit="10" d="
			M270.711,134.711c-38.891,38.891-102.53,38.891-141.421,0"/>
		<g id="head">
			<g id="face">
				<path id="face-skin" fill="#8DE5D3" d="M130.889,119.841c6.814,7.788,6.814,20.531,0,28.319c-6.814,7.788-17.965,7.788-24.779,0
			c-6.814-7.788-6.814-20.531,0-28.319C112.925,112.053,124.075,112.053,130.889,119.841z"/>
				<g id="face-parts">
					<path id="mouth" fill="none" stroke="#0f5957" stroke-width="2" stroke-linecap="round" stroke-miterlimit="10" d="
						M124.967,139.711c-4.861,4.861-12.816,4.861-17.678,0"/>
					<g id="eyes">
						<g>
							<path fill="#0f5957" d="M109,131.5c0,1.375-1.125,2.5-2.5,2.5s-2.5-1.125-2.5-2.5s1.125-2.5,2.5-2.5S109,130.125,109,131.5z"/>
							<path fill="#0f5957" d="M129,131.5c0,1.375-1.125,2.5-2.5,2.5s-2.5-1.125-2.5-2.5s1.125-2.5,2.5-2.5S129,130.125,129,131.5z"/>
						</g>
					</g>
				</g>
			</g>
		</g>
	<path id="antler-fg" fill="#0f5957" d="M174.91,104.697c-0.722-0.722-1.775-0.907-2.67-0.561c-0.315,0.122-0.612,0.306-0.866,0.561L166.071,110
		c-1.945,1.945-5.127,1.945-7.071,0s-1.945-5.127,0-7.071l2.574-2.574l4.497-4.497l1.768-1.768c0.976-0.976,0.976-2.559,0-3.536
		c-0.976-0.976-2.559-0.976-3.536,0l-12.374,12.374l-12.374,12.374c-0.976,0.976-0.976,2.559,0,3.536
		c0.976,0.976,2.559,0.976,3.536,0l6.265-6.265l3.536-3.536c0.435,1.65,1.287,3.21,2.574,4.497c1.287,1.287,2.847,2.139,4.497,2.574
		c3.335,0.88,7.043,0.028,9.645-2.574l5.303-5.303C175.886,107.256,175.886,105.673,174.91,104.697z"/>
	<path id="wing-fg" fill="#8A5194" d="M200.699,144.566c2.194,2.691,10.32,2.552,18.059-0.307l1.471-0.544c7.739-2.859,15.213-11.851,16.61-19.982
		l0.471-2.742c1.397-8.131,2.049-21.515,1.45-29.744l-0.431-5.908c-0.6-8.228-4.499-9.134-8.664-2.012l-25.383,43.399
		C200.118,133.848,198.505,141.876,200.699,144.566z"/>
	</g>
</svg>
